<svg xmlns="http://www.w3.org/2000/svg" viewBox="0 0 3180 980" width="3180" height="980"><rect width="3180" height="980" fill="#ece9e0"/><g transform="translate(30 30)"><defs><linearGradient id="gloss-salt-pepper" x1="0%" y1="0%" x2="100%" y2="0%"><stop offset="0%" stop-color="#1a1a1a"/><stop offset="20%" stop-color="#000000"/><stop offset="50%" stop-color="#0a0a0a"/><stop offset="80%" stop-color="#000000"/><stop offset="100%" stop-color="#1a1a1a"/></linearGradient><linearGradient id="topfold-salt-pepper" x1="0%" y1="0%" x2="0%" y2="100%"><stop offset="0%" stop-color="#2a2a2a"/><stop offset="100%" stop-color="#0a0a0a"/></linearGradient><radialGradient id="shadow-salt-pepper" cx="50%" cy="50%" r="50%"><stop offset="0%" stop-color="rgba(0,0,0,0.30)"/><stop offset="100%" stop-color="rgba(0,0,0,0)"/></radialGradient><linearGradient id="window-bg-salt-pepper" x1="0%" y1="0%" x2="0%" y2="100%"><stop offset="0%" stop-color="#2a1408"/><stop offset="50%" stop-color="#3d1d0c"/><stop offset="100%" stop-color="#1a0c04"/></linearGradient><linearGradient id="jerky-grad-salt-pepper" x1="0%" y1="0%" x2="0%" y2="100%"><stop offset="0%" stop-color="#7a3a1a"/><stop offset="50%" stop-color="#5a2410"/><stop offset="100%" stop-color="#3a1606"/></linearGradient><linearGradient id="window-gloss-salt-pepper" x1="0%" y1="0%" x2="0%" y2="100%"><stop offset="0%" stop-color="rgba(255,255,255,0.35)"/><stop offset="100%" stop-color="rgba(255,255,255,0)"/></linearGradient></defs><ellipse cx="300.0" cy="890" rx="204.00000000000003" ry="14" fill="url(#shadow-salt-pepper)"/><path d="M 110 100 Q 300 80 490 100 L 490 820 Q 300 840 110 820 Z" fill="url(#gloss-salt-pepper)" stroke="#000" stroke-width="1"/><path d="M 110 100 Q 300 80 490 100 L 490 138 Q 300 124 110 138 Z" fill="url(#topfold-salt-pepper)" stroke="#000" stroke-width="0.5"/><rect x="118" y="128" width="364" height="4" fill="#181818"/><text x="465" y="160" text-anchor="end" style="font-family:Helvetica,sans-serif;font-weight:700;font-size:9px;letter-spacing:0.18em;fill:#fff;opacity:0.85">MADE IN THE USA</text><g transform="translate(150 175)"><rect width="300" height="105" fill="#000"/><rect x="6" y="6" width="288" height="93" fill="none" stroke="#fff" stroke-width="2.5"/><rect x="11" y="11" width="278" height="83" fill="none" stroke="#fff" stroke-width="0.7"/><text x="150" y="62" text-anchor="middle" style="font-family:Playfair Display,Georgia,serif;font-weight:900;font-size:56px;letter-spacing:-0.03em;fill:#fff">got beef?</text><line x1="50" y1="74" x2="250" y2="74" stroke="#fff" stroke-width="1.2"/><text x="150" y="89" text-anchor="middle" style="font-family:Helvetica,sans-serif;font-weight:800;font-size:8px;letter-spacing:0.34em;fill:#fff">GRASS-FED &#183; GLUTEN-FREE</text></g><text x="300.0" y="310" text-anchor="middle" style="font-family:Helvetica,sans-serif;font-weight:700;font-size:12px;letter-spacing:0.18em;fill:#fff">GOURMET BRISKET BEEF JERKY</text><text x="300.0" y="380" text-anchor="middle" style="font-family:Playfair Display,Georgia,serif;font-weight:900;font-size:42px;letter-spacing:-0.02em;fill:#fff">Salt &amp;</text><text x="300.0" y="425" text-anchor="middle" style="font-family:Playfair Display,Georgia,serif;font-weight:900;font-size:42px;letter-spacing:-0.02em;fill:#fff">Pepper</text><g transform="translate(160.0 460)"><rect x="-3" y="-3" width="286" height="156" fill="none" stroke="#fff" stroke-width="1.5"/><rect width="280" height="150" fill="url(#window-bg-salt-pepper)" stroke="#fff" stroke-width="0.5"/><clipPath id="window-clip-salt-pepper"><rect width="280" height="150"/></clipPath><g clip-path="url(#window-clip-salt-pepper)"><g transform="translate(12 14) rotate(-8)"><rect width="100" height="32" rx="6" fill="url(#jerky-grad-salt-pepper)" stroke="#3a1e0a" stroke-width="0.4"/></g><g transform="translate(130 8) rotate(12)"><rect width="95" height="36" rx="6" fill="url(#jerky-grad-salt-pepper)" stroke="#3a1e0a" stroke-width="0.4"/></g><g transform="translate(50 56) rotate(4)"><rect width="110" height="30" rx="6" fill="url(#jerky-grad-salt-pepper)" stroke="#3a1e0a" stroke-width="0.4"/></g><g transform="translate(170 52) rotate(-6)"><rect width="90" height="32" rx="6" fill="url(#jerky-grad-salt-pepper)" stroke="#3a1e0a" stroke-width="0.4"/></g><g transform="translate(20 92) rotate(8)"><rect width="130" height="30" rx="6" fill="url(#jerky-grad-salt-pepper)" stroke="#3a1e0a" stroke-width="0.4"/></g><g transform="translate(180 96) rotate(-3)"><rect width="100" height="28" rx="6" fill="url(#jerky-grad-salt-pepper)" stroke="#3a1e0a" stroke-width="0.4"/></g></g><rect width="280" height="37.5" fill="url(#window-gloss-salt-pepper)" opacity="0.5"/></g><g transform="translate(130 628)"><line x1="0" y1="0" x2="340" y2="0" stroke="#fff" stroke-opacity="0.4" stroke-width="0.5"/><text x="6" y="14" style="font-family:Helvetica,sans-serif;font-size:6.2px;letter-spacing:0.02em;fill:#fff">INGREDIENTS: Beef, Ground Pepper, Sea Salt.</text></g><g transform="translate(145.0 708)"><rect width="70" height="32" fill="#000"/><rect x="2" y="2" width="66" height="28" fill="none" stroke="#fff" stroke-width="0.6"/><text x="35.0" y="14" text-anchor="middle" style="font-family:Helvetica,sans-serif;font-weight:800;font-size:7px;letter-spacing:0.10em;fill:#fff">ALL</text><text x="35.0" y="25" text-anchor="middle" style="font-family:Helvetica,sans-serif;font-weight:800;font-size:7px;letter-spacing:0.10em;fill:#fff">NATURAL</text></g>
<g transform="translate(225.0 708)"><rect width="70" height="32" fill="#000"/><rect x="2" y="2" width="66" height="28" fill="none" stroke="#fff" stroke-width="0.6"/><text x="35.0" y="14" text-anchor="middle" style="font-family:Helvetica,sans-serif;font-weight:800;font-size:7px;letter-spacing:0.10em;fill:#fff">GLUTEN</text><text x="35.0" y="25" text-anchor="middle" style="font-family:Helvetica,sans-serif;font-weight:800;font-size:7px;letter-spacing:0.10em;fill:#fff">FREE</text></g>
<g transform="translate(305.0 708)"><rect width="70" height="32" fill="#000"/><rect x="2" y="2" width="66" height="28" fill="none" stroke="#fff" stroke-width="0.6"/><text x="35.0" y="14" text-anchor="middle" style="font-family:Helvetica,sans-serif;font-weight:800;font-size:7px;letter-spacing:0.10em;fill:#fff">NO ADDED</text><text x="35.0" y="25" text-anchor="middle" style="font-family:Helvetica,sans-serif;font-weight:800;font-size:7px;letter-spacing:0.10em;fill:#fff">MSG</text></g>
<g transform="translate(385.0 708)"><rect width="70" height="32" fill="#000"/><rect x="2" y="2" width="66" height="28" fill="none" stroke="#fff" stroke-width="0.6"/><text x="35.0" y="14" text-anchor="middle" style="font-family:Helvetica,sans-serif;font-weight:800;font-size:7px;letter-spacing:0.10em;fill:#fff">NO ADDED</text><text x="35.0" y="25" text-anchor="middle" style="font-family:Helvetica,sans-serif;font-weight:800;font-size:7px;letter-spacing:0.10em;fill:#fff">NITRATES</text></g><g transform="translate(170 770)"><circle r="28" fill="#fff" stroke="#000" stroke-width="2.8000000000000003"/><circle r="24.64" fill="none" stroke="#000" stroke-width="0.7000000000000001"/><text y="-15.400000000000002" text-anchor="middle" style="font-family:Helvetica,sans-serif;font-weight:800;font-size:5.04px;fill:#000">U.S. INSPECTED</text><text y="-10.08" text-anchor="middle" style="font-family:Helvetica,sans-serif;font-weight:800;font-size:5.04px;fill:#000">AND PASSED</text><text y="3.64" text-anchor="middle" style="font-family:Helvetica,sans-serif;font-weight:900;font-size:11.76px;fill:#000">USDA</text><text y="11.200000000000001" text-anchor="middle" style="font-family:Helvetica,sans-serif;font-weight:800;font-size:4.48px;fill:#000">DEPT OF AGRICULTURE</text><text y="17.36" text-anchor="middle" style="font-family:Helvetica,sans-serif;font-weight:800;font-size:4.48px;fill:#000">EST. _____</text></g><text x="350.0" y="763" text-anchor="middle" style="font-family:Helvetica,sans-serif;font-weight:700;font-size:13px;letter-spacing:0.04em;fill:#fff">Net Wt 3 oz (85g)</text><text x="300.0" y="800" text-anchor="middle" style="font-family:Helvetica,sans-serif;font-weight:800;font-size:13px;letter-spacing:0.10em;fill:#fff">gotbeef.us</text><path d="M 145 110 Q 200 95 200 820 Q 145 820 130 110 Z" fill="rgba(255,255,255,0.04)"/><path d="M 460 110 Q 470 95 475 820 Q 470 820 455 820 Z" fill="rgba(0,0,0,0.20)"/></g>
<g transform="translate(660 30)"><defs><linearGradient id="gloss-salt-pepper-garlic" x1="0%" y1="0%" x2="100%" y2="0%"><stop offset="0%" stop-color="#1a1a1a"/><stop offset="20%" stop-color="#000000"/><stop offset="50%" stop-color="#0a0a0a"/><stop offset="80%" stop-color="#000000"/><stop offset="100%" stop-color="#1a1a1a"/></linearGradient><linearGradient id="topfold-salt-pepper-garlic" x1="0%" y1="0%" x2="0%" y2="100%"><stop offset="0%" stop-color="#2a2a2a"/><stop offset="100%" stop-color="#0a0a0a"/></linearGradient><radialGradient id="shadow-salt-pepper-garlic" cx="50%" cy="50%" r="50%"><stop offset="0%" stop-color="rgba(0,0,0,0.30)"/><stop offset="100%" stop-color="rgba(0,0,0,0)"/></radialGradient><linearGradient id="window-bg-salt-pepper-garlic" x1="0%" y1="0%" x2="0%" y2="100%"><stop offset="0%" stop-color="#2a1408"/><stop offset="50%" stop-color="#3d1d0c"/><stop offset="100%" stop-color="#1a0c04"/></linearGradient><linearGradient id="jerky-grad-salt-pepper-garlic" x1="0%" y1="0%" x2="0%" y2="100%"><stop offset="0%" stop-color="#7a3a1a"/><stop offset="50%" stop-color="#5a2410"/><stop offset="100%" stop-color="#3a1606"/></linearGradient><linearGradient id="window-gloss-salt-pepper-garlic" x1="0%" y1="0%" x2="0%" y2="100%"><stop offset="0%" stop-color="rgba(255,255,255,0.35)"/><stop offset="100%" stop-color="rgba(255,255,255,0)"/></linearGradient></defs><ellipse cx="300.0" cy="890" rx="204.00000000000003" ry="14" fill="url(#shadow-salt-pepper-garlic)"/><path d="M 110 100 Q 300 80 490 100 L 490 820 Q 300 840 110 820 Z" fill="url(#gloss-salt-pepper-garlic)" stroke="#000" stroke-width="1"/><path d="M 110 100 Q 300 80 490 100 L 490 138 Q 300 124 110 138 Z" fill="url(#topfold-salt-pepper-garlic)" stroke="#000" stroke-width="0.5"/><rect x="118" y="128" width="364" height="4" fill="#181818"/><text x="465" y="160" text-anchor="end" style="font-family:Helvetica,sans-serif;font-weight:700;font-size:9px;letter-spacing:0.18em;fill:#fff;opacity:0.85">MADE IN THE USA</text><g transform="translate(150 175)"><rect width="300" height="105" fill="#000"/><rect x="6" y="6" width="288" height="93" fill="none" stroke="#fff" stroke-width="2.5"/><rect x="11" y="11" width="278" height="83" fill="none" stroke="#fff" stroke-width="0.7"/><text x="150" y="62" text-anchor="middle" style="font-family:Playfair Display,Georgia,serif;font-weight:900;font-size:56px;letter-spacing:-0.03em;fill:#fff">got beef?</text><line x1="50" y1="74" x2="250" y2="74" stroke="#fff" stroke-width="1.2"/><text x="150" y="89" text-anchor="middle" style="font-family:Helvetica,sans-serif;font-weight:800;font-size:8px;letter-spacing:0.34em;fill:#fff">GRASS-FED &#183; GLUTEN-FREE</text></g><text x="300.0" y="310" text-anchor="middle" style="font-family:Helvetica,sans-serif;font-weight:700;font-size:12px;letter-spacing:0.18em;fill:#fff">GOURMET BRISKET BEEF JERKY</text><text x="300.0" y="380" text-anchor="middle" style="font-family:Playfair Display,Georgia,serif;font-weight:900;font-size:42px;letter-spacing:-0.02em;fill:#fff">Salt, Pepper</text><text x="300.0" y="425" text-anchor="middle" style="font-family:Playfair Display,Georgia,serif;font-weight:900;font-size:42px;letter-spacing:-0.02em;fill:#fff">&amp; Garlic</text><g transform="translate(160.0 460)"><rect x="-3" y="-3" width="286" height="156" fill="none" stroke="#fff" stroke-width="1.5"/><rect width="280" height="150" fill="url(#window-bg-salt-pepper-garlic)" stroke="#fff" stroke-width="0.5"/><clipPath id="window-clip-salt-pepper-garlic"><rect width="280" height="150"/></clipPath><g clip-path="url(#window-clip-salt-pepper-garlic)"><g transform="translate(12 14) rotate(-8)"><rect width="100" height="32" rx="6" fill="url(#jerky-grad-salt-pepper-garlic)" stroke="#3a1e0a" stroke-width="0.4"/></g><g transform="translate(130 8) rotate(12)"><rect width="95" height="36" rx="6" fill="url(#jerky-grad-salt-pepper-garlic)" stroke="#3a1e0a" stroke-width="0.4"/></g><g transform="translate(50 56) rotate(4)"><rect width="110" height="30" rx="6" fill="url(#jerky-grad-salt-pepper-garlic)" stroke="#3a1e0a" stroke-width="0.4"/></g><g transform="translate(170 52) rotate(-6)"><rect width="90" height="32" rx="6" fill="url(#jerky-grad-salt-pepper-garlic)" stroke="#3a1e0a" stroke-width="0.4"/></g><g transform="translate(20 92) rotate(8)"><rect width="130" height="30" rx="6" fill="url(#jerky-grad-salt-pepper-garlic)" stroke="#3a1e0a" stroke-width="0.4"/></g><g transform="translate(180 96) rotate(-3)"><rect width="100" height="28" rx="6" fill="url(#jerky-grad-salt-pepper-garlic)" stroke="#3a1e0a" stroke-width="0.4"/></g></g><rect width="280" height="37.5" fill="url(#window-gloss-salt-pepper-garlic)" opacity="0.5"/></g><g transform="translate(130 628)"><line x1="0" y1="0" x2="340" y2="0" stroke="#fff" stroke-opacity="0.4" stroke-width="0.5"/><text x="6" y="14" style="font-family:Helvetica,sans-serif;font-size:6.2px;letter-spacing:0.02em;fill:#fff">INGREDIENTS: Beef, Sea Salt, Dried Fried Garlic, Ground Black Pepper.</text></g><g transform="translate(145.0 708)"><rect width="70" height="32" fill="#000"/><rect x="2" y="2" width="66" height="28" fill="none" stroke="#fff" stroke-width="0.6"/><text x="35.0" y="14" text-anchor="middle" style="font-family:Helvetica,sans-serif;font-weight:800;font-size:7px;letter-spacing:0.10em;fill:#fff">ALL</text><text x="35.0" y="25" text-anchor="middle" style="font-family:Helvetica,sans-serif;font-weight:800;font-size:7px;letter-spacing:0.10em;fill:#fff">NATURAL</text></g>
<g transform="translate(225.0 708)"><rect width="70" height="32" fill="#000"/><rect x="2" y="2" width="66" height="28" fill="none" stroke="#fff" stroke-width="0.6"/><text x="35.0" y="14" text-anchor="middle" style="font-family:Helvetica,sans-serif;font-weight:800;font-size:7px;letter-spacing:0.10em;fill:#fff">GLUTEN</text><text x="35.0" y="25" text-anchor="middle" style="font-family:Helvetica,sans-serif;font-weight:800;font-size:7px;letter-spacing:0.10em;fill:#fff">FREE</text></g>
<g transform="translate(305.0 708)"><rect width="70" height="32" fill="#000"/><rect x="2" y="2" width="66" height="28" fill="none" stroke="#fff" stroke-width="0.6"/><text x="35.0" y="14" text-anchor="middle" style="font-family:Helvetica,sans-serif;font-weight:800;font-size:7px;letter-spacing:0.10em;fill:#fff">NO ADDED</text><text x="35.0" y="25" text-anchor="middle" style="font-family:Helvetica,sans-serif;font-weight:800;font-size:7px;letter-spacing:0.10em;fill:#fff">MSG</text></g>
<g transform="translate(385.0 708)"><rect width="70" height="32" fill="#000"/><rect x="2" y="2" width="66" height="28" fill="none" stroke="#fff" stroke-width="0.6"/><text x="35.0" y="14" text-anchor="middle" style="font-family:Helvetica,sans-serif;font-weight:800;font-size:7px;letter-spacing:0.10em;fill:#fff">NO ADDED</text><text x="35.0" y="25" text-anchor="middle" style="font-family:Helvetica,sans-serif;font-weight:800;font-size:7px;letter-spacing:0.10em;fill:#fff">NITRATES</text></g><g transform="translate(170 770)"><circle r="28" fill="#fff" stroke="#000" stroke-width="2.8000000000000003"/><circle r="24.64" fill="none" stroke="#000" stroke-width="0.7000000000000001"/><text y="-15.400000000000002" text-anchor="middle" style="font-family:Helvetica,sans-serif;font-weight:800;font-size:5.04px;fill:#000">U.S. INSPECTED</text><text y="-10.08" text-anchor="middle" style="font-family:Helvetica,sans-serif;font-weight:800;font-size:5.04px;fill:#000">AND PASSED</text><text y="3.64" text-anchor="middle" style="font-family:Helvetica,sans-serif;font-weight:900;font-size:11.76px;fill:#000">USDA</text><text y="11.200000000000001" text-anchor="middle" style="font-family:Helvetica,sans-serif;font-weight:800;font-size:4.48px;fill:#000">DEPT OF AGRICULTURE</text><text y="17.36" text-anchor="middle" style="font-family:Helvetica,sans-serif;font-weight:800;font-size:4.48px;fill:#000">EST. _____</text></g><text x="350.0" y="763" text-anchor="middle" style="font-family:Helvetica,sans-serif;font-weight:700;font-size:13px;letter-spacing:0.04em;fill:#fff">Net Wt 3 oz (85g)</text><text x="300.0" y="800" text-anchor="middle" style="font-family:Helvetica,sans-serif;font-weight:800;font-size:13px;letter-spacing:0.10em;fill:#fff">gotbeef.us</text><path d="M 145 110 Q 200 95 200 820 Q 145 820 130 110 Z" fill="rgba(255,255,255,0.04)"/><path d="M 460 110 Q 470 95 475 820 Q 470 820 455 820 Z" fill="rgba(0,0,0,0.20)"/></g>
<g transform="translate(1290 30)"><defs><linearGradient id="gloss-serrano-salt-pepper" x1="0%" y1="0%" x2="100%" y2="0%"><stop offset="0%" stop-color="#1a1a1a"/><stop offset="20%" stop-color="#000000"/><stop offset="50%" stop-color="#0a0a0a"/><stop offset="80%" stop-color="#000000"/><stop offset="100%" stop-color="#1a1a1a"/></linearGradient><linearGradient id="topfold-serrano-salt-pepper" x1="0%" y1="0%" x2="0%" y2="100%"><stop offset="0%" stop-color="#2a2a2a"/><stop offset="100%" stop-color="#0a0a0a"/></linearGradient><radialGradient id="shadow-serrano-salt-pepper" cx="50%" cy="50%" r="50%"><stop offset="0%" stop-color="rgba(0,0,0,0.30)"/><stop offset="100%" stop-color="rgba(0,0,0,0)"/></radialGradient><linearGradient id="window-bg-serrano-salt-pepper" x1="0%" y1="0%" x2="0%" y2="100%"><stop offset="0%" stop-color="#2a1408"/><stop offset="50%" stop-color="#3d1d0c"/><stop offset="100%" stop-color="#1a0c04"/></linearGradient><linearGradient id="jerky-grad-serrano-salt-pepper" x1="0%" y1="0%" x2="0%" y2="100%"><stop offset="0%" stop-color="#7a3a1a"/><stop offset="50%" stop-color="#5a2410"/><stop offset="100%" stop-color="#3a1606"/></linearGradient><linearGradient id="window-gloss-serrano-salt-pepper" x1="0%" y1="0%" x2="0%" y2="100%"><stop offset="0%" stop-color="rgba(255,255,255,0.35)"/><stop offset="100%" stop-color="rgba(255,255,255,0)"/></linearGradient></defs><ellipse cx="300.0" cy="890" rx="204.00000000000003" ry="14" fill="url(#shadow-serrano-salt-pepper)"/><path d="M 110 100 Q 300 80 490 100 L 490 820 Q 300 840 110 820 Z" fill="url(#gloss-serrano-salt-pepper)" stroke="#000" stroke-width="1"/><path d="M 110 100 Q 300 80 490 100 L 490 138 Q 300 124 110 138 Z" fill="url(#topfold-serrano-salt-pepper)" stroke="#000" stroke-width="0.5"/><rect x="118" y="128" width="364" height="4" fill="#181818"/><text x="465" y="160" text-anchor="end" style="font-family:Helvetica,sans-serif;font-weight:700;font-size:9px;letter-spacing:0.18em;fill:#fff;opacity:0.85">MADE IN THE USA</text><g transform="translate(150 175)"><rect width="300" height="105" fill="#000"/><rect x="6" y="6" width="288" height="93" fill="none" stroke="#fff" stroke-width="2.5"/><rect x="11" y="11" width="278" height="83" fill="none" stroke="#fff" stroke-width="0.7"/><text x="150" y="62" text-anchor="middle" style="font-family:Playfair Display,Georgia,serif;font-weight:900;font-size:56px;letter-spacing:-0.03em;fill:#fff">got beef?</text><line x1="50" y1="74" x2="250" y2="74" stroke="#fff" stroke-width="1.2"/><text x="150" y="89" text-anchor="middle" style="font-family:Helvetica,sans-serif;font-weight:800;font-size:8px;letter-spacing:0.34em;fill:#fff">GRASS-FED &#183; GLUTEN-FREE</text></g><text x="300.0" y="310" text-anchor="middle" style="font-family:Helvetica,sans-serif;font-weight:700;font-size:12px;letter-spacing:0.18em;fill:#fff">GOURMET BRISKET BEEF JERKY</text><text x="300.0" y="380" text-anchor="middle" style="font-family:Playfair Display,Georgia,serif;font-weight:900;font-size:42px;letter-spacing:-0.02em;fill:#fff">Serrano</text><text x="300.0" y="425" text-anchor="middle" style="font-family:Playfair Display,Georgia,serif;font-weight:900;font-size:42px;letter-spacing:-0.02em;fill:#fff">Salt &amp; Pepper</text><g transform="translate(160.0 460)"><rect x="-3" y="-3" width="286" height="156" fill="none" stroke="#fff" stroke-width="1.5"/><rect width="280" height="150" fill="url(#window-bg-serrano-salt-pepper)" stroke="#fff" stroke-width="0.5"/><clipPath id="window-clip-serrano-salt-pepper"><rect width="280" height="150"/></clipPath><g clip-path="url(#window-clip-serrano-salt-pepper)"><g transform="translate(12 14) rotate(-8)"><rect width="100" height="32" rx="6" fill="url(#jerky-grad-serrano-salt-pepper)" stroke="#3a1e0a" stroke-width="0.4"/></g><g transform="translate(130 8) rotate(12)"><rect width="95" height="36" rx="6" fill="url(#jerky-grad-serrano-salt-pepper)" stroke="#3a1e0a" stroke-width="0.4"/></g><g transform="translate(50 56) rotate(4)"><rect width="110" height="30" rx="6" fill="url(#jerky-grad-serrano-salt-pepper)" stroke="#3a1e0a" stroke-width="0.4"/></g><g transform="translate(170 52) rotate(-6)"><rect width="90" height="32" rx="6" fill="url(#jerky-grad-serrano-salt-pepper)" stroke="#3a1e0a" stroke-width="0.4"/></g><g transform="translate(20 92) rotate(8)"><rect width="130" height="30" rx="6" fill="url(#jerky-grad-serrano-salt-pepper)" stroke="#3a1e0a" stroke-width="0.4"/></g><g transform="translate(180 96) rotate(-3)"><rect width="100" height="28" rx="6" fill="url(#jerky-grad-serrano-salt-pepper)" stroke="#3a1e0a" stroke-width="0.4"/></g></g><rect width="280" height="37.5" fill="url(#window-gloss-serrano-salt-pepper)" opacity="0.5"/></g><g transform="translate(130 628)"><line x1="0" y1="0" x2="340" y2="0" stroke="#fff" stroke-opacity="0.4" stroke-width="0.5"/><text x="6" y="14" style="font-family:Helvetica,sans-serif;font-size:6.2px;letter-spacing:0.02em;fill:#fff">INGREDIENTS: Beef, Sea Salt, Table Grind Pepper, Serrano Pepper Powder.</text></g><g transform="translate(145.0 708)"><rect width="70" height="32" fill="#000"/><rect x="2" y="2" width="66" height="28" fill="none" stroke="#fff" stroke-width="0.6"/><text x="35.0" y="14" text-anchor="middle" style="font-family:Helvetica,sans-serif;font-weight:800;font-size:7px;letter-spacing:0.10em;fill:#fff">ALL</text><text x="35.0" y="25" text-anchor="middle" style="font-family:Helvetica,sans-serif;font-weight:800;font-size:7px;letter-spacing:0.10em;fill:#fff">NATURAL</text></g>
<g transform="translate(225.0 708)"><rect width="70" height="32" fill="#000"/><rect x="2" y="2" width="66" height="28" fill="none" stroke="#fff" stroke-width="0.6"/><text x="35.0" y="14" text-anchor="middle" style="font-family:Helvetica,sans-serif;font-weight:800;font-size:7px;letter-spacing:0.10em;fill:#fff">GLUTEN</text><text x="35.0" y="25" text-anchor="middle" style="font-family:Helvetica,sans-serif;font-weight:800;font-size:7px;letter-spacing:0.10em;fill:#fff">FREE</text></g>
<g transform="translate(305.0 708)"><rect width="70" height="32" fill="#000"/><rect x="2" y="2" width="66" height="28" fill="none" stroke="#fff" stroke-width="0.6"/><text x="35.0" y="14" text-anchor="middle" style="font-family:Helvetica,sans-serif;font-weight:800;font-size:7px;letter-spacing:0.10em;fill:#fff">NO ADDED</text><text x="35.0" y="25" text-anchor="middle" style="font-family:Helvetica,sans-serif;font-weight:800;font-size:7px;letter-spacing:0.10em;fill:#fff">MSG</text></g>
<g transform="translate(385.0 708)"><rect width="70" height="32" fill="#000"/><rect x="2" y="2" width="66" height="28" fill="none" stroke="#fff" stroke-width="0.6"/><text x="35.0" y="14" text-anchor="middle" style="font-family:Helvetica,sans-serif;font-weight:800;font-size:7px;letter-spacing:0.10em;fill:#fff">NO ADDED</text><text x="35.0" y="25" text-anchor="middle" style="font-family:Helvetica,sans-serif;font-weight:800;font-size:7px;letter-spacing:0.10em;fill:#fff">NITRATES</text></g><g transform="translate(170 770)"><circle r="28" fill="#fff" stroke="#000" stroke-width="2.8000000000000003"/><circle r="24.64" fill="none" stroke="#000" stroke-width="0.7000000000000001"/><text y="-15.400000000000002" text-anchor="middle" style="font-family:Helvetica,sans-serif;font-weight:800;font-size:5.04px;fill:#000">U.S. INSPECTED</text><text y="-10.08" text-anchor="middle" style="font-family:Helvetica,sans-serif;font-weight:800;font-size:5.04px;fill:#000">AND PASSED</text><text y="3.64" text-anchor="middle" style="font-family:Helvetica,sans-serif;font-weight:900;font-size:11.76px;fill:#000">USDA</text><text y="11.200000000000001" text-anchor="middle" style="font-family:Helvetica,sans-serif;font-weight:800;font-size:4.48px;fill:#000">DEPT OF AGRICULTURE</text><text y="17.36" text-anchor="middle" style="font-family:Helvetica,sans-serif;font-weight:800;font-size:4.48px;fill:#000">EST. _____</text></g><text x="350.0" y="763" text-anchor="middle" style="font-family:Helvetica,sans-serif;font-weight:700;font-size:13px;letter-spacing:0.04em;fill:#fff">Net Wt 3 oz (85g)</text><text x="300.0" y="800" text-anchor="middle" style="font-family:Helvetica,sans-serif;font-weight:800;font-size:13px;letter-spacing:0.10em;fill:#fff">gotbeef.us</text><path d="M 145 110 Q 200 95 200 820 Q 145 820 130 110 Z" fill="rgba(255,255,255,0.04)"/><path d="M 460 110 Q 470 95 475 820 Q 470 820 455 820 Z" fill="rgba(0,0,0,0.20)"/></g>
<g transform="translate(1920 30)"><defs><linearGradient id="gloss-carne-asada" x1="0%" y1="0%" x2="100%" y2="0%"><stop offset="0%" stop-color="#1a1a1a"/><stop offset="20%" stop-color="#000000"/><stop offset="50%" stop-color="#0a0a0a"/><stop offset="80%" stop-color="#000000"/><stop offset="100%" stop-color="#1a1a1a"/></linearGradient><linearGradient id="topfold-carne-asada" x1="0%" y1="0%" x2="0%" y2="100%"><stop offset="0%" stop-color="#2a2a2a"/><stop offset="100%" stop-color="#0a0a0a"/></linearGradient><radialGradient id="shadow-carne-asada" cx="50%" cy="50%" r="50%"><stop offset="0%" stop-color="rgba(0,0,0,0.30)"/><stop offset="100%" stop-color="rgba(0,0,0,0)"/></radialGradient><linearGradient id="window-bg-carne-asada" x1="0%" y1="0%" x2="0%" y2="100%"><stop offset="0%" stop-color="#2a1408"/><stop offset="50%" stop-color="#3d1d0c"/><stop offset="100%" stop-color="#1a0c04"/></linearGradient><linearGradient id="jerky-grad-carne-asada" x1="0%" y1="0%" x2="0%" y2="100%"><stop offset="0%" stop-color="#7a3a1a"/><stop offset="50%" stop-color="#5a2410"/><stop offset="100%" stop-color="#3a1606"/></linearGradient><linearGradient id="window-gloss-carne-asada" x1="0%" y1="0%" x2="0%" y2="100%"><stop offset="0%" stop-color="rgba(255,255,255,0.35)"/><stop offset="100%" stop-color="rgba(255,255,255,0)"/></linearGradient></defs><ellipse cx="300.0" cy="890" rx="204.00000000000003" ry="14" fill="url(#shadow-carne-asada)"/><path d="M 110 100 Q 300 80 490 100 L 490 820 Q 300 840 110 820 Z" fill="url(#gloss-carne-asada)" stroke="#000" stroke-width="1"/><path d="M 110 100 Q 300 80 490 100 L 490 138 Q 300 124 110 138 Z" fill="url(#topfold-carne-asada)" stroke="#000" stroke-width="0.5"/><rect x="118" y="128" width="364" height="4" fill="#181818"/><text x="465" y="160" text-anchor="end" style="font-family:Helvetica,sans-serif;font-weight:700;font-size:9px;letter-spacing:0.18em;fill:#fff;opacity:0.85">MADE IN THE USA</text><g transform="translate(150 175)"><rect width="300" height="105" fill="#000"/><rect x="6" y="6" width="288" height="93" fill="none" stroke="#fff" stroke-width="2.5"/><rect x="11" y="11" width="278" height="83" fill="none" stroke="#fff" stroke-width="0.7"/><text x="150" y="62" text-anchor="middle" style="font-family:Playfair Display,Georgia,serif;font-weight:900;font-size:56px;letter-spacing:-0.03em;fill:#fff">got beef?</text><line x1="50" y1="74" x2="250" y2="74" stroke="#fff" stroke-width="1.2"/><text x="150" y="89" text-anchor="middle" style="font-family:Helvetica,sans-serif;font-weight:800;font-size:8px;letter-spacing:0.34em;fill:#fff">GRASS-FED &#183; GLUTEN-FREE</text></g><text x="300.0" y="310" text-anchor="middle" style="font-family:Helvetica,sans-serif;font-weight:700;font-size:12px;letter-spacing:0.18em;fill:#fff">GOURMET BRISKET BEEF JERKY</text><text x="300.0" y="380" text-anchor="middle" style="font-family:Playfair Display,Georgia,serif;font-weight:900;font-size:42px;letter-spacing:-0.02em;fill:#fff">Carne</text><text x="300.0" y="425" text-anchor="middle" style="font-family:Playfair Display,Georgia,serif;font-weight:900;font-size:42px;letter-spacing:-0.02em;fill:#fff">Asada</text><g transform="translate(160.0 460)"><rect x="-3" y="-3" width="286" height="156" fill="none" stroke="#fff" stroke-width="1.5"/><rect width="280" height="150" fill="url(#window-bg-carne-asada)" stroke="#fff" stroke-width="0.5"/><clipPath id="window-clip-carne-asada"><rect width="280" height="150"/></clipPath><g clip-path="url(#window-clip-carne-asada)"><g transform="translate(12 14) rotate(-8)"><rect width="100" height="32" rx="6" fill="url(#jerky-grad-carne-asada)" stroke="#3a1e0a" stroke-width="0.4"/></g><g transform="translate(130 8) rotate(12)"><rect width="95" height="36" rx="6" fill="url(#jerky-grad-carne-asada)" stroke="#3a1e0a" stroke-width="0.4"/></g><g transform="translate(50 56) rotate(4)"><rect width="110" height="30" rx="6" fill="url(#jerky-grad-carne-asada)" stroke="#3a1e0a" stroke-width="0.4"/></g><g transform="translate(170 52) rotate(-6)"><rect width="90" height="32" rx="6" fill="url(#jerky-grad-carne-asada)" stroke="#3a1e0a" stroke-width="0.4"/></g><g transform="translate(20 92) rotate(8)"><rect width="130" height="30" rx="6" fill="url(#jerky-grad-carne-asada)" stroke="#3a1e0a" stroke-width="0.4"/></g><g transform="translate(180 96) rotate(-3)"><rect width="100" height="28" rx="6" fill="url(#jerky-grad-carne-asada)" stroke="#3a1e0a" stroke-width="0.4"/></g></g><rect width="280" height="37.5" fill="url(#window-gloss-carne-asada)" opacity="0.5"/></g><g transform="translate(130 628)"><line x1="0" y1="0" x2="340" y2="0" stroke="#fff" stroke-opacity="0.4" stroke-width="0.5"/><text x="6" y="14" style="font-family:Helvetica,sans-serif;font-size:6.2px;letter-spacing:0.02em;fill:#fff">INGREDIENTS: Beef, Orange Juice, Lime Juice, Sea Salt, Granulated Onion, Cilantro,</text><text x="6" y="23" style="font-family:Helvetica,sans-serif;font-size:6.2px;letter-spacing:0.02em;fill:#fff">Granulated Garlic, Cumin, Black Pepper, Paprika.</text></g><g transform="translate(145.0 708)"><rect width="70" height="32" fill="#000"/><rect x="2" y="2" width="66" height="28" fill="none" stroke="#fff" stroke-width="0.6"/><text x="35.0" y="14" text-anchor="middle" style="font-family:Helvetica,sans-serif;font-weight:800;font-size:7px;letter-spacing:0.10em;fill:#fff">ALL</text><text x="35.0" y="25" text-anchor="middle" style="font-family:Helvetica,sans-serif;font-weight:800;font-size:7px;letter-spacing:0.10em;fill:#fff">NATURAL</text></g>
<g transform="translate(225.0 708)"><rect width="70" height="32" fill="#000"/><rect x="2" y="2" width="66" height="28" fill="none" stroke="#fff" stroke-width="0.6"/><text x="35.0" y="14" text-anchor="middle" style="font-family:Helvetica,sans-serif;font-weight:800;font-size:7px;letter-spacing:0.10em;fill:#fff">GLUTEN</text><text x="35.0" y="25" text-anchor="middle" style="font-family:Helvetica,sans-serif;font-weight:800;font-size:7px;letter-spacing:0.10em;fill:#fff">FREE</text></g>
<g transform="translate(305.0 708)"><rect width="70" height="32" fill="#000"/><rect x="2" y="2" width="66" height="28" fill="none" stroke="#fff" stroke-width="0.6"/><text x="35.0" y="14" text-anchor="middle" style="font-family:Helvetica,sans-serif;font-weight:800;font-size:7px;letter-spacing:0.10em;fill:#fff">NO ADDED</text><text x="35.0" y="25" text-anchor="middle" style="font-family:Helvetica,sans-serif;font-weight:800;font-size:7px;letter-spacing:0.10em;fill:#fff">MSG</text></g>
<g transform="translate(385.0 708)"><rect width="70" height="32" fill="#000"/><rect x="2" y="2" width="66" height="28" fill="none" stroke="#fff" stroke-width="0.6"/><text x="35.0" y="14" text-anchor="middle" style="font-family:Helvetica,sans-serif;font-weight:800;font-size:7px;letter-spacing:0.10em;fill:#fff">NO ADDED</text><text x="35.0" y="25" text-anchor="middle" style="font-family:Helvetica,sans-serif;font-weight:800;font-size:7px;letter-spacing:0.10em;fill:#fff">NITRATES</text></g><g transform="translate(170 770)"><circle r="28" fill="#fff" stroke="#000" stroke-width="2.8000000000000003"/><circle r="24.64" fill="none" stroke="#000" stroke-width="0.7000000000000001"/><text y="-15.400000000000002" text-anchor="middle" style="font-family:Helvetica,sans-serif;font-weight:800;font-size:5.04px;fill:#000">U.S. INSPECTED</text><text y="-10.08" text-anchor="middle" style="font-family:Helvetica,sans-serif;font-weight:800;font-size:5.04px;fill:#000">AND PASSED</text><text y="3.64" text-anchor="middle" style="font-family:Helvetica,sans-serif;font-weight:900;font-size:11.76px;fill:#000">USDA</text><text y="11.200000000000001" text-anchor="middle" style="font-family:Helvetica,sans-serif;font-weight:800;font-size:4.48px;fill:#000">DEPT OF AGRICULTURE</text><text y="17.36" text-anchor="middle" style="font-family:Helvetica,sans-serif;font-weight:800;font-size:4.48px;fill:#000">EST. _____</text></g><text x="350.0" y="763" text-anchor="middle" style="font-family:Helvetica,sans-serif;font-weight:700;font-size:13px;letter-spacing:0.04em;fill:#fff">Net Wt 3 oz (85g)</text><text x="300.0" y="800" text-anchor="middle" style="font-family:Helvetica,sans-serif;font-weight:800;font-size:13px;letter-spacing:0.10em;fill:#fff">gotbeef.us</text><path d="M 145 110 Q 200 95 200 820 Q 145 820 130 110 Z" fill="rgba(255,255,255,0.04)"/><path d="M 460 110 Q 470 95 475 820 Q 470 820 455 820 Z" fill="rgba(0,0,0,0.20)"/></g>
<g transform="translate(2550 30)"><defs><linearGradient id="gloss-simply-bar-b" x1="0%" y1="0%" x2="100%" y2="0%"><stop offset="0%" stop-color="#1a1a1a"/><stop offset="20%" stop-color="#000000"/><stop offset="50%" stop-color="#0a0a0a"/><stop offset="80%" stop-color="#000000"/><stop offset="100%" stop-color="#1a1a1a"/></linearGradient><linearGradient id="topfold-simply-bar-b" x1="0%" y1="0%" x2="0%" y2="100%"><stop offset="0%" stop-color="#2a2a2a"/><stop offset="100%" stop-color="#0a0a0a"/></linearGradient><radialGradient id="shadow-simply-bar-b" cx="50%" cy="50%" r="50%"><stop offset="0%" stop-color="rgba(0,0,0,0.30)"/><stop offset="100%" stop-color="rgba(0,0,0,0)"/></radialGradient><linearGradient id="window-bg-simply-bar-b" x1="0%" y1="0%" x2="0%" y2="100%"><stop offset="0%" stop-color="#2a1408"/><stop offset="50%" stop-color="#3d1d0c"/><stop offset="100%" stop-color="#1a0c04"/></linearGradient><linearGradient id="jerky-grad-simply-bar-b" x1="0%" y1="0%" x2="0%" y2="100%"><stop offset="0%" stop-color="#7a3a1a"/><stop offset="50%" stop-color="#5a2410"/><stop offset="100%" stop-color="#3a1606"/></linearGradient><linearGradient id="window-gloss-simply-bar-b" x1="0%" y1="0%" x2="0%" y2="100%"><stop offset="0%" stop-color="rgba(255,255,255,0.35)"/><stop offset="100%" stop-color="rgba(255,255,255,0)"/></linearGradient></defs><ellipse cx="300.0" cy="890" rx="204.00000000000003" ry="14" fill="url(#shadow-simply-bar-b)"/><path d="M 110 100 Q 300 80 490 100 L 490 820 Q 300 840 110 820 Z" fill="url(#gloss-simply-bar-b)" stroke="#000" stroke-width="1"/><path d="M 110 100 Q 300 80 490 100 L 490 138 Q 300 124 110 138 Z" fill="url(#topfold-simply-bar-b)" stroke="#000" stroke-width="0.5"/><rect x="118" y="128" width="364" height="4" fill="#181818"/><text x="465" y="160" text-anchor="end" style="font-family:Helvetica,sans-serif;font-weight:700;font-size:9px;letter-spacing:0.18em;fill:#fff;opacity:0.85">MADE IN THE USA</text><g transform="translate(150 175)"><rect width="300" height="105" fill="#000"/><rect x="6" y="6" width="288" height="93" fill="none" stroke="#fff" stroke-width="2.5"/><rect x="11" y="11" width="278" height="83" fill="none" stroke="#fff" stroke-width="0.7"/><text x="150" y="62" text-anchor="middle" style="font-family:Playfair Display,Georgia,serif;font-weight:900;font-size:56px;letter-spacing:-0.03em;fill:#fff">got beef?</text><line x1="50" y1="74" x2="250" y2="74" stroke="#fff" stroke-width="1.2"/><text x="150" y="89" text-anchor="middle" style="font-family:Helvetica,sans-serif;font-weight:800;font-size:8px;letter-spacing:0.34em;fill:#fff">GRASS-FED &#183; GLUTEN-FREE</text></g><text x="300.0" y="310" text-anchor="middle" style="font-family:Helvetica,sans-serif;font-weight:700;font-size:12px;letter-spacing:0.18em;fill:#fff">GOURMET BRISKET BEEF JERKY</text><text x="300.0" y="380" text-anchor="middle" style="font-family:Playfair Display,Georgia,serif;font-weight:900;font-size:42px;letter-spacing:-0.02em;fill:#fff">Simply</text><text x="300.0" y="425" text-anchor="middle" style="font-family:Playfair Display,Georgia,serif;font-weight:900;font-size:42px;letter-spacing:-0.02em;fill:#fff">Bar-B</text><g transform="translate(160.0 460)"><rect x="-3" y="-3" width="286" height="156" fill="none" stroke="#fff" stroke-width="1.5"/><rect width="280" height="150" fill="url(#window-bg-simply-bar-b)" stroke="#fff" stroke-width="0.5"/><clipPath id="window-clip-simply-bar-b"><rect width="280" height="150"/></clipPath><g clip-path="url(#window-clip-simply-bar-b)"><g transform="translate(12 14) rotate(-8)"><rect width="100" height="32" rx="6" fill="url(#jerky-grad-simply-bar-b)" stroke="#3a1e0a" stroke-width="0.4"/></g><g transform="translate(130 8) rotate(12)"><rect width="95" height="36" rx="6" fill="url(#jerky-grad-simply-bar-b)" stroke="#3a1e0a" stroke-width="0.4"/></g><g transform="translate(50 56) rotate(4)"><rect width="110" height="30" rx="6" fill="url(#jerky-grad-simply-bar-b)" stroke="#3a1e0a" stroke-width="0.4"/></g><g transform="translate(170 52) rotate(-6)"><rect width="90" height="32" rx="6" fill="url(#jerky-grad-simply-bar-b)" stroke="#3a1e0a" stroke-width="0.4"/></g><g transform="translate(20 92) rotate(8)"><rect width="130" height="30" rx="6" fill="url(#jerky-grad-simply-bar-b)" stroke="#3a1e0a" stroke-width="0.4"/></g><g transform="translate(180 96) rotate(-3)"><rect width="100" height="28" rx="6" fill="url(#jerky-grad-simply-bar-b)" stroke="#3a1e0a" stroke-width="0.4"/></g></g><rect width="280" height="37.5" fill="url(#window-gloss-simply-bar-b)" opacity="0.5"/></g><g transform="translate(130 628)"><line x1="0" y1="0" x2="340" y2="0" stroke="#fff" stroke-opacity="0.4" stroke-width="0.5"/><text x="6" y="14" style="font-family:Helvetica,sans-serif;font-size:6.2px;letter-spacing:0.02em;fill:#fff">INGREDIENTS: Beef, Granulated Monk Fruit Sweetener (Allulose, Monk Fruit Extract), Sea Salt,</text><text x="6" y="23" style="font-family:Helvetica,sans-serif;font-size:6.2px;letter-spacing:0.02em;fill:#fff">Garlic Powder, Tomato Powder, Onion Powder, Smoked Paprika, Mustard Powder, Dried Thyme,</text><text x="6" y="32" style="font-family:Helvetica,sans-serif;font-size:6.2px;letter-spacing:0.02em;fill:#fff">Cayenne.</text></g><g transform="translate(145.0 708)"><rect width="70" height="32" fill="#000"/><rect x="2" y="2" width="66" height="28" fill="none" stroke="#fff" stroke-width="0.6"/><text x="35.0" y="14" text-anchor="middle" style="font-family:Helvetica,sans-serif;font-weight:800;font-size:7px;letter-spacing:0.10em;fill:#fff">ALL</text><text x="35.0" y="25" text-anchor="middle" style="font-family:Helvetica,sans-serif;font-weight:800;font-size:7px;letter-spacing:0.10em;fill:#fff">NATURAL</text></g>
<g transform="translate(225.0 708)"><rect width="70" height="32" fill="#000"/><rect x="2" y="2" width="66" height="28" fill="none" stroke="#fff" stroke-width="0.6"/><text x="35.0" y="14" text-anchor="middle" style="font-family:Helvetica,sans-serif;font-weight:800;font-size:7px;letter-spacing:0.10em;fill:#fff">GLUTEN</text><text x="35.0" y="25" text-anchor="middle" style="font-family:Helvetica,sans-serif;font-weight:800;font-size:7px;letter-spacing:0.10em;fill:#fff">FREE</text></g>
<g transform="translate(305.0 708)"><rect width="70" height="32" fill="#000"/><rect x="2" y="2" width="66" height="28" fill="none" stroke="#fff" stroke-width="0.6"/><text x="35.0" y="14" text-anchor="middle" style="font-family:Helvetica,sans-serif;font-weight:800;font-size:7px;letter-spacing:0.10em;fill:#fff">NO ADDED</text><text x="35.0" y="25" text-anchor="middle" style="font-family:Helvetica,sans-serif;font-weight:800;font-size:7px;letter-spacing:0.10em;fill:#fff">MSG</text></g>
<g transform="translate(385.0 708)"><rect width="70" height="32" fill="#000"/><rect x="2" y="2" width="66" height="28" fill="none" stroke="#fff" stroke-width="0.6"/><text x="35.0" y="14" text-anchor="middle" style="font-family:Helvetica,sans-serif;font-weight:800;font-size:7px;letter-spacing:0.10em;fill:#fff">NO ADDED</text><text x="35.0" y="25" text-anchor="middle" style="font-family:Helvetica,sans-serif;font-weight:800;font-size:7px;letter-spacing:0.10em;fill:#fff">NITRATES</text></g><g transform="translate(170 770)"><circle r="28" fill="#fff" stroke="#000" stroke-width="2.8000000000000003"/><circle r="24.64" fill="none" stroke="#000" stroke-width="0.7000000000000001"/><text y="-15.400000000000002" text-anchor="middle" style="font-family:Helvetica,sans-serif;font-weight:800;font-size:5.04px;fill:#000">U.S. INSPECTED</text><text y="-10.08" text-anchor="middle" style="font-family:Helvetica,sans-serif;font-weight:800;font-size:5.04px;fill:#000">AND PASSED</text><text y="3.64" text-anchor="middle" style="font-family:Helvetica,sans-serif;font-weight:900;font-size:11.76px;fill:#000">USDA</text><text y="11.200000000000001" text-anchor="middle" style="font-family:Helvetica,sans-serif;font-weight:800;font-size:4.48px;fill:#000">DEPT OF AGRICULTURE</text><text y="17.36" text-anchor="middle" style="font-family:Helvetica,sans-serif;font-weight:800;font-size:4.48px;fill:#000">EST. _____</text></g><text x="350.0" y="763" text-anchor="middle" style="font-family:Helvetica,sans-serif;font-weight:700;font-size:13px;letter-spacing:0.04em;fill:#fff">Net Wt 3 oz (85g)</text><text x="300.0" y="800" text-anchor="middle" style="font-family:Helvetica,sans-serif;font-weight:800;font-size:13px;letter-spacing:0.10em;fill:#fff">gotbeef.us</text><path d="M 145 110 Q 200 95 200 820 Q 145 820 130 110 Z" fill="rgba(255,255,255,0.04)"/><path d="M 460 110 Q 470 95 475 820 Q 470 820 455 820 Z" fill="rgba(0,0,0,0.20)"/></g></svg>